# xmcd CD database file
#
# Track frame offsets:
#	150
#	24721
#	41805
#	69032
#	88439
#	116464
#	136456
#	153748
#	169673
#	190325
#	219488
#
# Disc length: 3300 seconds
#
# Revision: 0
# Processed by: cddbd v1.5PL3 Copyright (c) Steve Scherf et al.
# Submitted via: CDex 1.51
#
DISCID=9d0ce20b
DTITLE=Don Boyle Band - Blues- That's What I like
DYEAR=1998
DGENRE=Blues
TTITLE0=That's What I like
TTITLE1=That Kind of Blues
TTITLE2=Just Hangin' Around
TTITLE3=Trouble's Just Begun
TTITLE4=Out on the Sidewalk
TTITLE5=Keep Trying to Figure Out
TTITLE6=Momma Said No
TTITLE7=One Track Mind
TTITLE8=It Doesn't Really Matter (Cuz I Got My Girl)
TTITLE9=Tell Me What's Goin' On
TTITLE10=Out on the Sidewalk (Alternate Vocal Mix)
EXTD=YEAR: 1998
EXTT0=
EXTT1=
EXTT2=
EXTT3=
EXTT4=
EXTT5=
EXTT6=
EXTT7=
EXTT8=
EXTT9=
EXTT10=
PLAYORDER=
